<svg width="72" height="72" viewBox="0 0 72 72" fill="none" xmlns="http://www.w3.org/2000/svg">
<path d="M37.7954 17.96C29.2454 23.45 23.7954 26.29 23.7954 26.31C23.7954 26.33 20.8854 32.56 20.7354 34.42C20.5146 32.411 20.4078 30.3911 20.4154 28.37C20.2054 28.47 7.92538 37.69 5.98538 42.37C3.64538 47.27 7.20539 53.99 7.18539 54C5.90344 55.5151 4.69856 57.0937 3.57537 58.73C1.96537 61.07 0.915365 63.27 1.00537 63.57C1.12537 64.19 2.92536 68.02 2.53536 64.75C2.14536 61.48 8.82538 56.56 9.30538 56.54C10.5854 57.1 16.1854 56.63 17.1154 57.23C18.0454 57.83 22.4654 54.65 22.5354 54.62C22.6054 54.59 16.6254 56.52 13.7454 54.17C17.6445 54.0093 21.519 53.4734 25.3154 52.57C24.8954 52.74 34.5554 42.73 37.0654 41.46C38.9854 40.46 45.6454 35.46 45.7354 35.41C45.8254 35.36 42.3654 36.98 40.7954 35.56C44.0337 34.9999 47.2044 34.1016 50.2554 32.88C50.0854 32.96 59.5654 23.65 64.6554 17.97C66.3105 16.9716 67.8043 15.7274 69.0854 14.28C69.0854 14.28 70.9354 11.53 71.0854 9.75998C69.3454 10.64 68.5454 10.23 68.5454 10.23C68.5454 10.23 70.5454 7.69 69.8254 6C69.0846 6.27469 68.3116 6.45282 67.5254 6.53C65.4462 6.82484 63.3979 7.3068 61.4054 7.97C58.1254 9.07 46.4654 12.46 37.7954 17.96ZM35.4954 30.3C46.0654 23.44 59.4954 15.58 64.3054 13.5C64.3654 13.5 49.8054 22.5 38.2054 30.38C26.1054 38.45 16.9654 45.33 16.2054 46.24C14.5654 48.06 10.9154 52.24 10.6354 52.99C10.6354 53.11 10.6354 53.15 10.6354 53.08C10.6324 53.0501 10.6324 53.0199 10.6354 52.99C11.4828 50.0373 12.9677 47.3064 14.9854 44.99C16.5554 43.3 24.6054 37.3 35.4954 30.3V30.3Z" fill="#ffffff"/>
</svg>
