<svg width="148" height="148" viewBox="0 0 148 148" fill="none" xmlns="http://www.w3.org/2000/svg">
<path fill-rule="evenodd" clip-rule="evenodd" d="M107.945 126.893C105.825 114.651 99.2295 110.638 81.5326 99.8711C78.7683 98.1884 75.7245 96.337 72.3688 94.2534C47.3028 78.6942 35.627 65.4646 35.627 52.6222V32.1266C41.752 45.2684 54.1146 57.3572 74.8997 70.702L78.3712 72.9268C100.383 87.0201 112.509 94.7816 113.375 109.783C113.758 116.468 111.1 122.853 107.945 126.893Z" fill="white"/>
<path fill-rule="evenodd" clip-rule="evenodd" d="M82.0693 139C60.3504 139 42.5189 119.92 41.1333 95.8839C50.7487 109.846 65.3677 118.076 80.8627 118.076C86.831 118.076 92.5317 116.782 97.3974 114.325C102.304 118.59 104.31 122.658 105.133 129.96C102.047 133.444 97.4553 136.103 91.8262 137.66C88.612 138.549 85.3296 139 82.0693 139Z" fill="white"/>
<path fill-rule="evenodd" clip-rule="evenodd" d="M71.4875 64.5762C50.3156 50.2179 39.5363 37.5975 35.6335 22.6938C35.6284 21.6786 35.6182 20.7908 35.608 19.9202C35.5568 15.2333 35.5108 11.1246 36.7839 8C40.1293 19.5984 48.0541 28.7313 55.1012 36.8507C64.0314 47.145 69.2924 56.0266 71.4875 64.5762Z" fill="white"/>
</svg>
