<svg width="155" height="155" viewBox="0 0 155 155" fill="none" xmlns="http://www.w3.org/2000/svg">
<g clip-path="url(#clip0_902_4817)">
<path d="M77.46 154.92C120.24 154.92 154.92 120.24 154.92 77.46C154.92 34.68 120.24 0 77.46 0C34.68 0 0 34.68 0 77.46C0 120.24 34.68 154.92 77.46 154.92Z" fill="#F2F2F2"/>
<path d="M59.1502 85.5199C58.6002 86.2799 57.9302 86.9999 57.1402 87.6699C56.3502 88.3399 55.4802 88.9299 54.5202 89.4199C53.5602 89.9199 52.5202 90.3099 51.4102 90.5999C50.2902 90.8899 49.1302 91.0299 47.9202 91.0299C45.9202 91.0299 44.1002 90.6899 42.4402 90.0099C40.7902 89.3299 39.3602 88.3799 38.1702 87.1499C36.9702 85.9299 36.0502 84.4799 35.3902 82.8199C34.7302 81.1499 34.4102 79.3199 34.4102 77.3199C34.4102 75.3199 34.7402 73.5599 35.3902 71.8599C36.0502 70.1699 36.9702 68.6999 38.1702 67.4499C39.3602 66.1999 40.8002 65.2199 42.4602 64.4999C44.1302 63.7799 45.9702 63.4199 47.9902 63.4199C50.4302 63.4199 52.5702 63.8699 54.3902 64.7599C56.2102 65.6499 57.7302 66.9399 58.9402 68.6199L54.8802 72.5199C54.0902 71.4199 53.1602 70.5299 52.0802 69.8599C51.0002 69.1899 49.7202 68.8599 48.2202 68.8599C47.0402 68.8599 45.9702 69.0799 45.0302 69.5099C44.0802 69.9399 43.2802 70.5399 42.6302 71.2999C41.9702 72.0599 41.4702 72.9499 41.1102 73.9599C40.7602 74.9699 40.5802 76.0399 40.5802 77.1699C40.5802 78.2999 40.7602 79.3999 41.1102 80.3999C41.4602 81.3999 41.9702 82.2599 42.6302 82.9999C43.2902 83.7399 44.0702 84.3099 44.9902 84.7299C45.9102 85.1499 46.9502 85.3599 48.1002 85.3599C49.0502 85.3599 49.8702 85.2599 50.5602 85.0699C51.2602 84.8699 51.8702 84.6099 52.4102 84.2799C52.9502 83.9499 53.4302 83.5699 53.8502 83.1399C54.2702 82.7099 54.6802 82.2699 55.0702 81.8199L59.1302 85.5199H59.1502Z" fill="#29323F"/>
<path d="M80.6103 88.1999C79.4303 89.1699 78.2703 89.8799 77.1203 90.3299C75.9703 90.7799 74.6803 90.9999 73.2403 90.9999C71.9303 90.9999 70.7403 90.8099 69.6703 90.4299C68.6003 90.0499 67.6903 89.5199 66.9303 88.8499C66.1703 88.1799 65.5803 87.3799 65.1803 86.4499C64.7703 85.5199 64.5703 84.4899 64.5703 83.3599C64.5703 81.8099 64.9803 80.3299 65.7903 78.9299C66.6003 77.5299 67.9203 76.2699 69.7303 75.1699C69.1303 74.3599 68.6903 73.5199 68.4103 72.6699C68.1303 71.8199 68.0003 71.0099 68.0003 70.2499C68.0003 69.2999 68.1903 68.4199 68.5703 67.5899C68.9503 66.7599 69.4903 66.0399 70.1903 65.4199C70.8903 64.7999 71.7303 64.3099 72.7103 63.9399C73.6903 63.5699 74.8003 63.3899 76.0403 63.3899C77.9603 63.3899 79.5103 63.8399 80.7103 64.7299C81.9003 65.6199 82.8003 66.6999 83.4103 67.9599L79.3903 70.4399C78.9703 69.5499 78.5003 68.9199 77.9703 68.5499C77.4403 68.1799 76.8803 67.9999 76.2803 67.9999C75.4903 67.9999 74.8603 68.2299 74.3703 68.6899C73.8803 69.1499 73.6403 69.7199 73.6403 70.3999C73.6403 70.9299 73.7803 71.4299 74.0503 71.9199C74.3303 72.4099 74.6503 72.8699 75.0203 73.3199L81.1703 80.6099L84.7203 76.5499L88.5403 79.8999L84.4803 84.5099L89.4403 90.3799H82.4703L80.6203 88.2099L80.6103 88.1999ZM72.6503 78.7499C71.7003 79.4299 71.0503 80.0999 70.6803 80.7599C70.3103 81.4199 70.1303 82.1299 70.1303 82.8899C70.1303 83.8399 70.4503 84.5999 71.1003 85.1799C71.7403 85.7599 72.6203 86.0499 73.7203 86.0499C74.4803 86.0499 75.1403 85.9099 75.7103 85.6199C76.2703 85.3299 76.8603 84.9199 77.4603 84.3999L72.6503 78.7699V78.7499Z" fill="#29323F"/>
<path d="M117.76 85.5199C117.21 86.2799 116.54 86.9999 115.75 87.6699C114.96 88.3399 114.09 88.9299 113.13 89.4199C112.17 89.9199 111.13 90.3099 110.02 90.5999C108.9 90.8899 107.74 91.0299 106.53 91.0299C104.53 91.0299 102.71 90.6899 101.05 90.0099C99.3995 89.3299 97.9695 88.3799 96.7795 87.1499C95.5895 85.9199 94.6595 84.4799 93.9995 82.8199C93.3395 81.1499 93.0195 79.3199 93.0195 77.3199C93.0195 75.3199 93.3495 73.5599 93.9995 71.8599C94.6595 70.1699 95.5795 68.6999 96.7795 67.4499C97.9795 66.1999 99.4095 65.2199 101.07 64.4999C102.74 63.7799 104.58 63.4199 106.6 63.4199C109.04 63.4199 111.18 63.8699 113 64.7599C114.82 65.6499 116.34 66.9399 117.55 68.6199L113.49 72.5199C112.7 71.4199 111.77 70.5299 110.69 69.8599C109.61 69.1899 108.33 68.8599 106.83 68.8599C105.65 68.8599 104.58 69.0799 103.64 69.5099C102.69 69.9399 101.89 70.5399 101.24 71.2999C100.59 72.0599 100.08 72.9499 99.7195 73.9599C99.3695 74.9699 99.1895 76.0399 99.1895 77.1699C99.1895 78.2999 99.3695 79.3999 99.7195 80.3999C100.07 81.3999 100.58 82.2599 101.24 82.9999C101.9 83.7399 102.68 84.3099 103.6 84.7299C104.52 85.1499 105.56 85.3599 106.71 85.3599C107.66 85.3599 108.48 85.2599 109.17 85.0699C109.86 84.8799 110.48 84.6099 111.02 84.2799C111.56 83.9499 112.04 83.5699 112.46 83.1399C112.88 82.7099 113.29 82.2699 113.68 81.8199L117.74 85.5199H117.76Z" fill="#29323F"/>
<path d="M128.329 89.7801C126.689 91.1801 124.229 90.9801 122.829 89.3401C121.429 87.7001 121.629 85.2401 123.269 83.8401C124.909 82.4401 127.369 82.6401 128.769 84.2801C129.369 84.9901 129.699 85.8801 129.699 86.8101C129.699 87.9501 129.199 89.0401 128.329 89.7801Z" fill="#EF5340"/>
</g>
<defs>
<clipPath id="clip0_902_4817">
<rect width="154.92" height="154.92" fill="white"/>
</clipPath>
</defs>
</svg>
