<svg xmlns="http://www.w3.org/2000/svg" fill="none" viewBox="0 0 200 200" width="32" height="32">
  <rect width="200" height="200" fill="#001E2B" rx="100"/>
  <path fill="#00ED64" d="M109.673 56.3717c-4.674-5.5273-8.699-11.141-9.521-12.3069-.086-.0864-.2163-.0864-.3029 0-.8223 1.1659-4.8471 6.7796-9.5212 12.3069-40.1187 50.9983 6.3187 85.4143 6.3187 85.4143l.3894.259c.3463 5.312 1.2118 12.955 1.2118 12.955h3.4622s.866-7.6 1.212-12.955l.389-.302c.044 0 46.481-34.373 6.362-85.3713Zm-9.694 84.6373s-2.0774-1.771-2.64-2.677v-.087l2.5101-55.5321c0-.1727.2599-.1727.2599 0l2.51 55.5321v.087c-.563.906-2.64 2.677-2.64 2.677Z"/>
</svg>
