<svg width="250" height="276" viewBox="0 0 250 276" fill="none" xmlns="http://www.w3.org/2000/svg">
<g clip-path="url(#clip0_328_8324)">
<path d="M125 3.89999C192.3 3.89999 246.9 54.9 246.9 117.9C246.9 180.9 192.3 231.9 125 231.9C57.7 231.9 3.1 180.9 3.1 117.9C3.1 54.9 57.7 3.89999 125 3.89999ZM125 0.799988C108.2 0.799988 91.8 3.89999 76.4 9.99999C61.5 15.9 48.2 24.3 36.7 35C25.2 45.8 16.2 58.3 9.9 72.2C3.3 86.7 0 102 0 117.9C0 133.8 3.3 149.1 9.9 163.5C16.2 177.4 25.2 190 36.7 200.7C48.2 211.4 61.5 219.9 76.4 225.7C91.8 231.8 108.1 234.9 125 234.9C141.9 234.9 158.2 231.8 173.6 225.7C188.5 219.8 201.8 211.4 213.3 200.7C224.8 190 233.8 177.4 240.1 163.5C246.6 149 250 133.7 250 117.9C250 102.1 246.7 86.7 240.1 72.3C233.8 58.4 224.8 45.8 213.3 35.1C201.8 24.4 188.5 15.9 173.6 10.1C158.2 3.89999 141.8 0.799988 125 0.799988Z" fill="white"/>
<path d="M88.5 250L83.7 256.5C81.5 259.6 79.8 261.2 78.5 261.2C77.9 261.2 77.4 260.9 77 260.2C76.6 259.6 76.1 258.6 75.7 257.3C75.2 256 74.9 255 74.7 254.3C74.3 252.7 74 251.8 73.9 251.6L73.2 255.4C73 256.6 72.7 257.7 72.5 258.7C72.3 259.7 72 260.9 71.7 262.4C71.4 263.8 71.2 264.9 71.2 265.6C71.2 265.8 71 266.1 70.5 266.4C70.1 266.7 69.7 266.8 69.5 266.8C69 266.8 68.6 266.6 68.2 266.2C67.8 265.8 67.6 265.4 67.6 265C67.6 264.1 67.8 262.9 68.2 261.5C69.8 255.7 70.7 252 70.9 250.5C71.1 249 71.2 247.7 71.2 246.7C71.2 246.2 71.4 245.8 71.9 245.5C72.4 245.2 72.9 245.1 73.7 245.1C74.1 245.1 74.5 245.4 74.9 245.9C75.3 246.4 75.6 246.9 75.7 247.3L77.7 252.9C78.5 255.1 79 256.6 79.3 257.2C80.3 256.1 81.9 254.1 83.9 251.3C85.9 248.5 87.3 246.7 88.1 245.9C88.9 245.1 89.4 244.7 89.7 244.7C90.2 244.7 90.7 244.9 91.3 245.3C91.9 245.7 92.2 246 92.2 246.3C92.2 246.5 92 248 91.6 250.7C91.3 252.6 91.1 254.7 90.9 257.1C90.7 259.5 90.6 260.8 90.6 261.3C90.6 261.8 90.7 262.4 90.8 262.9C90.9 263.3 90.9 263.7 90.9 264.1C90.9 265.1 90.7 265.7 90.4 266.1C90.1 266.4 89.6 266.6 88.9 266.6C87.6 266.6 87 265.7 87 263.7C87 261.9 87.2 259.7 87.5 257.1C87.8 254.5 88.1 252.5 88.4 251.1C88.4 250.6 88.5 250.2 88.5 250Z" fill="white"/>
<path d="M105.6 261.1C103.1 264.4 100.6 266.1 98.2 266.1C97.3 266.1 96.6 265.8 96 265.1C95.4 264.4 95.1 263.5 95.1 262.5C95.1 259.9 96.2 257.2 98.5 254.3C100.8 251.4 103.1 250 105.4 250C106.6 250 107.3 250.6 107.7 251.8C108.8 251.8 109.4 252.2 109.4 253.1C109.4 253.5 109.3 254.2 109.1 255.3C108.7 257.3 108.5 258.9 108.5 260.1C108.5 261.3 108.6 262.2 108.8 262.7C109 263.2 109.1 263.5 109.2 263.7C109.3 263.9 109.5 264 109.9 264.2C110.3 264.4 110.5 264.6 110.5 265C110.5 265.5 110.3 265.9 109.8 266.2C109.3 266.5 108.8 266.7 108.2 266.7C106.2 266.6 105.4 264.7 105.6 261.1ZM104.7 253.1C103.7 253.1 102.5 254.2 100.9 256.3C99.3 258.5 98.6 260.3 98.6 261.8C98.6 262.6 98.8 263 99.1 263C100.2 263 101.6 262 103.3 260C105 258 105.8 256.2 105.8 254.7C105.8 254.2 105.7 253.8 105.5 253.5C105.2 253.2 105 253.1 104.7 253.1Z" fill="white"/>
<path d="M119.8 262.3C119.8 261.8 118.9 261.1 117.3 260.4C115.3 259.4 114 258.6 113.5 257.9C113 257.2 112.7 256.5 112.7 255.6C112.7 253.9 113.7 252.4 115.6 251.1C117.5 249.8 119.3 249.2 121 249.2C122.6 249.2 123.4 249.9 123.4 251.3C123.4 251.7 123.2 252 122.8 252.3C122.4 252.6 122.1 252.7 121.9 252.7C121.8 252.7 121.6 252.6 121.3 252.5C121 252.4 120.8 252.3 120.7 252.3C119.8 252.3 118.9 252.6 117.9 253.2C116.9 253.8 116.4 254.5 116.4 255.2C116.4 255.6 116.6 255.9 116.9 256.3C117.3 256.7 118 257.1 119.1 257.6C120.8 258.4 121.9 259.1 122.4 259.7C122.9 260.3 123.2 261 123.2 261.8C123.2 263.2 122.2 264.4 120.3 265.3C118.4 266.2 116.3 266.7 113.9 266.7C112.2 266.7 111.3 266.1 111.3 264.8C111.3 264.3 111.5 263.9 111.8 263.6C112.2 263.3 112.6 263.1 113 263.1C113.2 263.1 113.5 263.2 113.9 263.3C114.3 263.4 114.6 263.5 115 263.5C115.9 263.5 116.9 263.4 117.9 263.1C118.8 263.1 119.5 262.7 119.8 262.3Z" fill="white"/>
<path d="M132.3 262.3C132.3 261.8 131.4 261.1 129.8 260.4C127.8 259.4 126.5 258.6 126 257.9C125.5 257.2 125.2 256.5 125.2 255.6C125.2 253.9 126.2 252.4 128.1 251.1C130 249.8 131.8 249.2 133.5 249.2C135.1 249.2 135.9 249.9 135.9 251.3C135.9 251.7 135.7 252 135.3 252.3C134.9 252.6 134.6 252.7 134.4 252.7C134.3 252.7 134.1 252.6 133.8 252.5C133.5 252.4 133.3 252.3 133.2 252.3C132.3 252.3 131.4 252.6 130.4 253.2C129.4 253.8 128.9 254.5 128.9 255.2C128.9 255.6 129.1 255.9 129.4 256.3C129.8 256.7 130.5 257.1 131.6 257.6C133.3 258.4 134.4 259.1 134.9 259.7C135.4 260.3 135.7 261 135.7 261.8C135.7 263.2 134.7 264.4 132.8 265.3C130.9 266.2 128.8 266.7 126.4 266.7C124.7 266.7 123.8 266.1 123.8 264.8C123.8 264.3 124 263.9 124.3 263.6C124.7 263.3 125.1 263.1 125.5 263.1C125.7 263.1 126 263.2 126.4 263.3C126.8 263.4 127.1 263.5 127.5 263.5C128.4 263.5 129.4 263.4 130.4 263.1C131.4 263.1 132 262.7 132.3 262.3Z" fill="white"/>
<path d="M148 261.1C145.5 264.4 143 266.1 140.6 266.1C139.7 266.1 139 265.8 138.4 265.1C137.8 264.4 137.5 263.5 137.5 262.5C137.5 259.9 138.6 257.2 140.9 254.3C143.2 251.4 145.5 250 147.8 250C149 250 149.7 250.6 150.1 251.8C151.2 251.8 151.8 252.2 151.8 253.1C151.8 253.5 151.7 254.2 151.5 255.3C151.1 257.3 150.9 258.9 150.9 260.1C150.9 261.3 151 262.2 151.2 262.7C151.4 263.2 151.5 263.5 151.6 263.7C151.7 263.9 151.9 264 152.3 264.2C152.7 264.4 152.9 264.6 152.9 265C152.9 265.5 152.7 265.9 152.2 266.2C151.7 266.5 151.2 266.7 150.6 266.7C148.6 266.6 147.8 264.7 148 261.1ZM147.1 253.1C146.1 253.1 144.9 254.2 143.3 256.3C141.7 258.4 141 260.3 141 261.8C141 262.6 141.2 263 141.5 263C142.6 263 144 262 145.7 260C147.4 258 148.2 256.2 148.2 254.7C148.2 254.2 148.1 253.8 147.9 253.5C147.6 253.2 147.4 253.1 147.1 253.1Z" fill="white"/>
<path d="M165.3 261.5C164.2 262.7 163 263.7 161.6 264.5C160.2 265.3 158.9 265.7 157.9 265.7C156.9 265.7 156.1 265.4 155.5 264.8C154.9 264.2 154.7 263.4 154.7 262.3C154.7 260.8 155.3 259.1 156.4 257.3C157.5 255.5 159.1 253.9 161.1 252.5C163.1 251.1 164.9 250.5 166.5 250.5C167.4 250.5 168.2 250.7 168.8 251.2C169 251.3 169.1 251.4 169.2 251.5C169.4 251.7 169.6 252 169.8 252.4C170 252.8 170.1 253.2 170.1 253.5C170.1 253.7 169.9 254.3 169.6 255.3C169.2 256.3 169 257.3 168.8 258.3C168.7 259.3 168.4 261.7 167.9 265.6C167.5 269 166.6 271.4 165.1 273C163.6 274.6 162 275.3 160.2 275.3C158.3 275.3 156.5 274.7 154.7 273.4C152.9 272.1 152 271.1 152 270.2C152 269.5 152.4 269.1 153.1 269.1C153.4 269.1 153.9 269.4 154.8 269.9C157 271.3 158.9 272.1 160.5 272.1C161.7 272.1 162.7 271.3 163.5 269.9C164.2 268.3 164.8 265.5 165.3 261.5ZM165.6 253.5C164.9 253.5 164 253.9 162.8 254.8C161.6 255.7 160.6 256.8 159.6 258.3C158.6 259.7 158.1 260.9 158.1 261.9C158.1 262.4 158.3 262.7 158.6 262.7C159.8 262.7 161.1 262.2 162.3 261.2C163.5 260.2 164.5 259 165.3 257.7C166.1 256.4 166.4 255.4 166.4 254.7C166.4 254.4 166.3 254.1 166.1 253.9C166.1 253.6 165.9 253.5 165.6 253.5Z" fill="white"/>
<path d="M185.3 261C185.3 262 184.5 263.2 182.8 264.6C181.1 266 179.2 266.7 177.1 266.7C175.5 266.7 174.2 266.2 173.3 265.2C172.4 264.2 171.9 262.7 171.9 260.9C171.9 258.2 172.9 255.7 174.8 253.3C176.7 250.9 178.8 249.8 180.9 249.8C182 249.8 182.8 250.1 183.5 250.8C184.2 251.5 184.5 252.3 184.5 253.2C184.5 254.9 183.7 256.5 182.1 258C180.5 259.5 178.4 260.6 175.9 261.1C175.6 261.2 175.5 261.3 175.5 261.6C175.5 262.1 175.7 262.5 176.1 262.9C176.5 263.3 177.1 263.5 177.7 263.5C179.6 263.5 181.6 262.5 183.5 260.5C183.9 260.1 184.2 259.9 184.6 259.9C185 260 185.3 260.3 185.3 261ZM175.6 258.4C177.1 258.1 178.5 257.4 179.6 256.4C180.7 255.4 181.3 254.5 181.3 253.7C181.3 253.4 181.2 253.1 181 252.9C180.8 252.7 180.6 252.6 180.3 252.6C179.5 252.6 178.5 253.2 177.5 254.5C176.5 255.8 175.9 257 175.6 258.4Z" fill="white"/>
<path d="M209.7 119.3C208.5 119.3 207 120.4 205.2 122.7C203.3 125 202.4 126.8 202.4 128.1C202.4 128.4 202.6 128.7 202.9 129C203.2 129.3 203.6 129.4 204.1 129.4C205.3 129.4 206.7 128.4 208.3 126.5C209.9 124.6 210.7 122.8 210.7 121C210.7 120.4 210.6 120 210.4 119.7C210.1 119.4 209.9 119.3 209.7 119.3Z" fill="#F4F4F5"/>
<path d="M207.8 39.8C174.6 10.6 155.4 12.7 155.4 12.7C200.2 33.5 186.3 83.1 157.5 91.9C128.7 100.7 108.7 82.5 111.6 60.4C114.4 39.4 149.5 36.4 152.8 60.9C156 85.3 132.2 85 132.2 85C168.9 94.1 197.4 36.3 150.4 15.6C102.5 -5.60002 58.5 45.3 78.1 84.7C99.9 128.6 175.1 110.7 179.5 174C181.3 200.2 160.9 220.6 136.5 224.6C135.8 224.8 135.4 224.9 135.4 224.9C226.3 225.9 282.2 105.1 207.8 39.8ZM165 120.8L164.9 121.1C164.4 122.9 164.1 124.4 164 125.6C163.9 126.8 163.8 127.7 163.8 128.4C163.8 129 163.9 129.8 164.1 130.7C164.1 130.9 164.1 131 164.1 131.1C164.1 131.3 163.9 131.6 163.5 132C163.1 132.4 162.6 132.6 162.2 132.6C160.9 132.6 160.3 131.6 160.3 129.7C160.3 128.1 160.5 126.1 161 123.8C161.1 123.3 161.2 122.8 161.3 122.3C161.6 120.6 161.8 119.6 161.8 119.3C161.8 118.6 162 118 162.3 117.5C162.6 117 163 116.8 163.6 116.8C164.2 116.8 164.8 117 165.1 117.3C165.5 117.6 165.6 117.9 165.6 118.3C165.5 118.8 165.3 119.6 165 120.8ZM167.2 112.4C166.6 112.9 166.1 113.2 165.6 113.2C165 113.2 164.5 113 164.1 112.5C163.7 112 163.4 111.5 163.4 111.1C163.4 110.4 163.6 109.9 164.1 109.4C164.5 109 165.2 108.8 166 108.8C166.6 108.8 167.2 109 167.6 109.4C168 109.8 168.2 110.2 168.2 110.7C168.1 111.3 167.8 111.9 167.2 112.4ZM195 131.1C194.5 131.5 193.9 131.7 193.3 131.7C192.3 131.7 191.6 131.2 191 130.3C190.5 129.3 190.1 127.4 189.9 124.5C189.8 123.1 189.7 122.2 189.6 121.7C189.5 121.2 189.3 121 189.1 121C188.9 121 188.6 121.3 188.2 122C187.8 122.7 187.1 124 186.1 126.1C185.2 127.9 184.5 129.2 183.9 129.9C183.3 130.6 182.6 131 181.9 131C181.3 131 180.8 130.8 180.2 130.3C179.6 129.8 179.3 128.1 179.3 125.1C179.3 122.4 179.1 121.1 178.8 121.1C178.4 121.1 177.4 122.3 175.9 124.7C174.4 127.1 173.2 129.2 172.4 131.1C172.3 132.1 171.7 132.6 170.8 132.6C169.5 132.6 168.9 131.7 168.9 129.9C168.9 127 169.1 124.5 169.4 122.4C169.6 120.8 169.8 119.2 169.8 117.6C169.8 117.2 169.9 116.9 170.2 116.7C170.4 116.4 170.8 116.3 171.2 116.3C172.6 116.3 173.3 117.2 173.3 118.9C173.3 119.5 173 120.9 172.5 123.2C172.2 124.6 172 125.6 172 126.2C174.7 120.2 177.2 117.2 179.4 117.2C180.3 117.2 181 117.6 181.5 118.3C182 119 182.3 120.6 182.3 123C182.3 125.2 182.4 126.3 182.6 126.3C182.8 126.3 183.4 125.2 184.4 123.1C185.5 120.7 186.5 119.2 187.3 118.4C188.1 117.6 189 117.3 189.8 117.3C190.9 117.3 191.6 117.8 192.1 118.7C192.6 119.6 192.9 121.2 193.1 123.3C193.2 125 193.4 126.3 193.7 127.2C193.9 128.1 194.4 128.7 195 128.9C195.5 129.1 195.7 129.5 195.7 129.9C195.9 130.3 195.6 130.7 195 131.1ZM210.5 128.5C208.1 131 205.7 132.3 203.4 132.3C202.3 132.3 201.6 131.9 201.3 131C201.1 131.7 201 132.7 200.8 134L200.1 139.6C200 140.5 199.8 141.2 199.4 141.5C199.1 141.9 198.7 142 198.2 142C197.8 142 197.4 141.8 197 141.5C196.6 141.2 196.4 140.8 196.4 140.4C196.4 139.6 196.5 138.7 196.8 137.7C198.2 132 199 126.1 199.1 120V119.7C199.1 118.4 199.1 117.6 199.2 117.1C199.3 116.7 199.5 116.3 199.8 116C200.1 115.7 200.6 115.5 201.2 115.5C202.2 115.5 202.8 116.3 202.8 117.9C202.8 118.5 202.7 119.7 202.4 121.2L202.3 122.2C203.4 120.4 204.7 118.9 206.2 117.7C207.7 116.5 209 115.9 210.2 115.9C211.3 115.9 212.2 116.3 212.9 117C213.7 117.8 214 118.7 214 119.9C214.1 123.1 212.9 125.9 210.5 128.5ZM222.3 115.5C221.8 117.2 221.5 119.1 221.2 121.1C221 123.1 220.8 124.7 220.8 125.8C220.8 127 220.9 128.5 221.1 130.1C221.1 130.5 221.2 130.8 221.2 130.9C221.2 131.5 221 132 220.6 132.4C220.2 132.8 219.7 133 219.2 133C218.5 133 218 132.7 217.8 132C217.5 131.4 217.4 130.3 217.4 128.7C217.4 125.3 217.8 121.4 218.6 116.8C219.4 112.3 220 109.6 220.5 108.7C221 107.9 221.6 107.5 222.2 107.5C223.2 107.5 223.7 108.1 223.7 109.2C223.7 109.7 223.6 110.3 223.5 110.9C223.3 111.6 222.9 113.1 222.3 115.5ZM238.3 130.3C237.9 132.5 237.3 134.5 236.6 136.2C235.8 138 235 139.2 234.2 139.8C233.3 140.4 232.3 140.8 231.1 140.8C229.8 140.8 228.6 140.6 227.4 140.1C226.4 139.7 225.5 139.1 224.8 138.4C224.1 137.7 223.7 137.1 223.7 136.6C223.7 136.2 223.8 135.8 224 135.5C224.2 135.2 224.5 135.1 224.9 135.1C225.2 135.1 225.5 135.2 225.7 135.5C226.9 137.1 228.7 137.9 231 137.9C231.9 137.9 232.9 136.9 233.7 134.9C234.6 132.9 235.1 130.5 235.4 127.8C232.4 130.1 230.2 131.3 228.6 131.3C227.6 131.3 226.8 130.9 226.1 130.1C225.5 129.3 225.2 128.3 225.2 127.1C225.2 125.9 225.5 124.3 226 122.1C226.5 119.9 227 118.5 227.4 118C227.8 117.5 228.4 117.2 229.2 117.2C229.7 117.2 230 117.4 230.3 117.8C230.5 118.2 230.7 118.6 230.7 119.1C230.7 119.2 230.4 120.1 229.7 121.5C228.9 123.3 228.4 124.8 228.4 126.1C228.4 126.8 228.5 127.3 228.7 127.6C228.9 127.9 229.1 128.1 229.3 128.1C229.8 128.1 230.3 128 231 127.7C231.7 127.4 232.4 126.9 233.3 126.3C234.2 125.6 234.8 125.1 235 124.7C235.3 124.3 235.5 123.9 235.6 123.3C235.8 122.7 235.9 121.5 236 119.6C236 118.5 236.1 117.8 236.2 117.5C236.3 117.2 236.4 117 236.7 116.7C237 116.5 237.3 116.3 237.8 116.3C238.4 116.3 238.9 116.4 239.1 116.7C239.4 117 239.5 117.6 239.5 118.6L239.2 123.3C238.9 125.8 238.6 128.1 238.3 130.3Z" fill="#F4F4F5"/>
<path d="M129 155.7C129 155.7 128.4 155.3 128.1 155.1C127.3 154.6 126.5 154.2 125.7 153.9C121.5 152.1 117 151.1 112.2 151.1C92.8001 151.1 77.1001 167.5 77.1001 187.8C77.1001 208.1 92.8001 224.5 112.2 224.5C113.8 224.5 115.3 224.4 116.8 224.2C99.4001 223.7 85.4001 208.9 85.4001 190.5C85.4001 174.9 95.6001 161.7 109.4 157.9C106.7 160.8 105 164.8 105 169.2C105 178.1 111.9 185.4 120.5 185.4C129.1 185.4 136 178.2 136 169.2C135.9 163.5 133.1 158.6 129 155.7Z" fill="#F4F4F5"/>
</g>
<defs>
<clipPath id="clip0_328_8324">
<rect width="250" height="276" fill="white"/>
</clipPath>
</defs>
</svg>
