<svg width="122" height="122" viewBox="0 0 122 122" fill="none" xmlns="http://www.w3.org/2000/svg">
<path d="M71.2477 0.0309672C70.0362 -0.170734 68.887 0.651588 68.6851 1.87731L61.4321 46.0655C61.2302 47.2757 62.0534 48.4239 63.2803 48.6256C64.5073 48.8273 65.641 48.0049 65.8429 46.7792L73.0958 2.59103C73.2977 1.38082 72.4746 0.232669 71.2477 0.0309672Z" fill="#E84853"/>
<path d="M42.4844 4.48387C42.0495 3.33572 40.7605 2.74613 39.5957 3.18056C38.4464 3.615 37.8562 4.90279 38.2911 6.06645L54.0705 47.9583C54.3501 48.7031 55.0179 49.2461 55.81 49.3703C56.1983 49.4323 56.6021 49.3858 56.9593 49.2461C58.093 48.8117 58.6521 47.5705 58.2483 46.4378L42.4689 4.48387H42.4844Z" fill="#E84853"/>
<path d="M14.0937 24.8713L48.8054 53.1871C49.1005 53.4354 49.4577 53.5905 49.8459 53.6526C50.8555 53.8232 51.8339 53.2957 52.2688 52.3803C52.6881 51.4649 52.4396 50.3633 51.6475 49.7271L16.9358 21.4113C15.9729 20.6356 14.5751 20.7752 13.7831 21.7216C13.0065 22.6836 13.1463 24.08 14.0937 24.8713Z" fill="#E84853"/>
<path d="M49.349 58.633C49.5509 57.4228 48.7278 56.2747 47.5008 56.073L3.26864 48.8272C2.05723 48.6255 0.907949 49.4479 0.706046 50.6736C0.504144 51.8993 1.32729 53.0319 2.55423 53.2336L46.7864 60.4794C47.9978 60.6811 49.1471 59.8588 49.349 58.633Z" fill="#E84853"/>
<path d="M50.0479 64.8858C49.613 63.7531 48.3706 63.1946 47.2368 63.598L5.30322 79.3618C4.35583 79.7186 3.76566 80.6651 3.85885 81.6736C3.95203 82.6821 4.72858 83.4889 5.72256 83.6595C6.11083 83.7216 6.51465 83.6906 6.87186 83.5509L48.8054 67.7872C49.9392 67.3217 50.4828 66.0339 50.0324 64.9013L50.0479 64.8858Z" fill="#E84853"/>
<path d="M53.6356 69.9748C52.6882 69.2456 51.337 69.3852 50.5605 70.2851L22.2165 104.962C21.4865 105.909 21.6263 107.259 22.5426 108.034C22.8533 108.283 23.2105 108.438 23.5987 108.515C24.3908 108.639 25.1829 108.345 25.6954 107.724L54.0394 73.0469C54.7694 72.0849 54.583 70.7196 53.6356 69.9748Z" fill="#E84853"/>
<path d="M59.351 72.5504C58.1396 72.3487 56.9902 73.1711 56.7883 74.3968L49.5354 118.585C49.3335 119.795 50.1566 120.943 51.3836 121.145C52.6105 121.347 53.7443 120.524 53.9462 119.299L61.1991 75.1105C61.401 73.9003 60.5779 72.7521 59.351 72.5504Z" fill="#E84853"/>
<path d="M68.4986 73.2176C68.0482 72.116 66.8057 71.5574 65.6875 71.9453C64.5537 72.3798 63.9791 73.621 64.3984 74.7536L80.1778 116.646C80.4574 117.39 81.1253 117.933 81.9173 118.057C82.3056 118.12 82.6939 118.073 83.0666 117.949C84.1849 117.499 84.7439 116.273 84.3557 115.141L68.4986 73.2176Z" fill="#E84853"/>
<path d="M108.537 96.3202L73.8257 68.0044C72.8783 67.2596 71.5116 67.3992 70.7506 68.3302C70.0207 69.2766 70.1604 70.6265 71.0612 71.4022L105.773 99.7181C106.068 99.9818 106.441 100.137 106.829 100.199C107.823 100.37 108.817 99.8422 109.221 98.9113C109.625 97.9803 109.376 96.8942 108.6 96.2581L108.522 96.3202H108.537Z" fill="#E84853"/>
<path d="M120.093 67.9424L75.8604 60.6967C74.649 60.495 73.4997 61.3173 73.2978 62.543C73.0959 63.7688 73.919 64.9014 75.146 65.1031L119.378 72.3488C120.59 72.5505 121.739 71.7282 121.941 70.5025C122.143 69.2768 121.32 68.1441 120.093 67.9424Z" fill="#E84853"/>
<path d="M72.6765 56.3058C72.956 57.0505 73.6083 57.5936 74.4159 57.7177C74.7887 57.7798 75.1925 57.7487 75.5497 57.6091L117.483 41.8453C118.633 41.4109 119.223 40.1231 118.788 38.9595C118.353 37.8113 117.064 37.2217 115.899 37.6562L73.9655 53.4199C72.8162 53.8543 72.2416 55.1577 72.6765 56.3058Z" fill="#E84853"/>
<path d="M68.9957 51.2942C69.2908 51.5424 69.6635 51.7131 70.0518 51.7907C70.8439 51.9148 71.636 51.62 72.1485 50.9994L100.492 16.3222C101.269 15.3603 101.129 13.9639 100.182 13.1726C99.2189 12.3968 97.8212 12.5364 97.0291 13.4829L68.6851 48.1601C68.3123 48.61 68.1259 49.1996 68.1881 49.7892C68.2502 50.3788 68.5453 50.9218 69.0113 51.2942H68.9957Z" fill="#E84853"/>
</svg>
