<svg width="118" height="118" viewBox="0 0 118 118" fill="none" xmlns="http://www.w3.org/2000/svg">
<g clip-path="url(#clip0_902_4811)">
<path d="M91.9137 0.562012C91.9137 0.562012 66.1907 5.246 60.2567 19.536C54.3207 33.827 106.39 37.66 104.227 57.13C102.028 76.917 85.5387 80.653 68.3907 87.469C68.3907 87.469 76.5267 102.944 50.8047 117.52H117.535V0.562012H91.9137Z" fill="#F9BC60"/>
<path d="M57.1782 98.242C62.4102 79.03 12.2842 79.251 13.2092 60.869C14.1922 41.302 33.6542 37.124 50.8032 30.308C50.8032 30.308 38.9292 16.017 67.1152 0.561035H0.574219V117.52H26.0032C26.0032 117.52 53.1122 113.171 57.1782 98.242V98.242Z" fill="#F9BC60"/>
<path d="M25.2977 59.041C25.2977 59.041 25.5177 65.485 39.5887 70.322C53.6587 75.16 61.3537 80.654 61.3537 80.654C61.3537 80.654 89.4947 74.499 92.5727 61.089C95.6497 47.678 67.5537 43.5 58.9587 37.345C58.9577 37.344 25.1017 43.558 25.2977 59.041Z" fill="url(#paint0_radial_902_4811)"/>
</g>
<defs>
<radialGradient id="paint0_radial_902_4811" cx="0" cy="0" r="1" gradientUnits="userSpaceOnUse" gradientTransform="translate(59.0519 58.9995) rotate(90) scale(21.6545 33.7551)">
<stop stop-color="#F9BC60" stop-opacity="0"/>
<stop offset="1" stop-color="#F9BC60"/>
</radialGradient>
<clipPath id="clip0_902_4811">
<rect width="118" height="118" rx="59" fill="white"/>
</clipPath>
</defs>
</svg>
