<svg width="177" height="177" viewBox="0 0 177 177" fill="none" xmlns="http://www.w3.org/2000/svg">
<g clip-path="url(#clip0_402_6)">
<path d="M88.1 176.2C136.756 176.2 176.2 136.756 176.2 88.1C176.2 39.4437 136.756 0 88.1 0C39.4437 0 0 39.4437 0 88.1C0 136.756 39.4437 176.2 88.1 176.2Z" fill="#002D5C"/>
<path d="M14 87.5C17.4 88.2 20.7 86 21.4 82.6C22.1 79.2 19.9 75.9 16.5 75.2C13.1 74.5 9.80001 76.7 9.10001 80.1C8.40001 83.5 10.6 86.8 14 87.5Z" fill="white"/>
<path d="M28.1 97.9C28 97.5 27.9 97.2 27.8 96.8L27.2 94.6C26.4 90.6 22.5 88.1 18.5 88.9C14.5 89.7 12 93.6 12.8 97.6C12.9 98 13 98.3 13.1 98.7L13.7 100.9C14.5 104.9 18.4 107.4 22.4 106.6C26.4 105.8 29 101.9 28.1 97.9Z" fill="white"/>
<path d="M119.8 137.5C119.8 137.5 119.5 138.2 118.7 139.1C118.7 139.2 118.6 139.2 118.6 139.3C118.5 139.4 118.4 139.5 118.3 139.6C118.3 139.7 118.2 139.7 118.2 139.8C117 141 115.2 142.2 112.5 142C109.6 142 107 140.2 105.9 137.5L105.8 137.3C105.7 137 105.5 136.6 105.4 136.2L88.9 86.3L71.3 128.3C70.4 130.3 68.7 131.8 66.6 132.5C65.1 133 63.5 132.9 62.1 132.5H62C61.8 132.4 61.6 132.4 61.4 132.3C61.3 132.2 61.2 132.2 61 132.1C60.9 132.1 60.8 132 60.7 132C60.5 131.9 60.4 131.8 60.2 131.7L60.1 131.6C59.9 131.5 59.8 131.4 59.6 131.2C59.6 131.2 59.5 131.2 59.5 131.1C59.3 131 59.1 130.8 59 130.6C58.1 129.7 57.4 128.5 57 127.3L46.6 96L44.9 100.1C44.6 100.8 44.2 101.4 43.7 102C41.6 104.5 38.1 105.2 35.1 103.9C31.4 102.3 29.7 97.9 31.4 94.2L31.7 93.5L40.3 70.7C42 66.8 46.5 65.1 50.4 66.8C52.2 67.6 53.6 69 54.4 70.9L54.5 71.2L58.4 82.6L59.1 84.7L59.2 85L65.2 102.4L82.6 60.8C84.3 56.9 88.8 55.2 92.7 56.9C94.8 57.9 96.4 59.8 97 62.1L101 74.5L101.2 75.1L101.3 75.4C101.8 76.6 113.4 112.1 113.4 112.1L140.6 48C141.6 44.9 144.5 42.6 147.9 42.6C152.1 42.6 155.5 46 155.5 50.2C155.5 51 155.4 51.8 155.1 52.6L119.8 137.5Z" fill="white"/>
<path d="M34.3 106.7C30.6 105.1 26.3 106.7 24.6 110.4L22.3 115.5C20.8 119.1 22.4 123.3 26 125C29.7 126.7 34 125.1 35.8 121.5L37.8 117.1C39.4 113.4 38 108.3 34.3 106.7Z" fill="white"/>
<path opacity="0.7" d="M65.3 102.4L59.3 85L59.2 84.8C58.5 83 56.8 81.2 54.3 81.9C52.3 82.5 51.3 84.4 50.8 85.5L46.6 96L57 127.4C58.2 131.4 62.5 133.7 66.6 132.5C68.7 131.9 70.4 130.3 71.3 128.3L72.9 124.5L65.3 102.4Z" fill="url(#paint0_linear_402_6)"/>
<path opacity="0.7" d="M113.5 112L111.5 105.8L102.6 79V78.9L102.5 78.6V78.5L102.4 78.2V78.1L102.3 77.9V77.8L102.2 77.6L102.1 77.4L102 77.2V77V76.9V76.8V76.7L101.8 76.2L101.7 76V75.9V75.8C101.7 75.7 101.7 75.7 101.6 75.6V75.5C101.6 75.5 101.6 75.5 101.6 75.4C101.6 75.4 101.6 75.4 101.6 75.3V75.2C100.9 73.5 99.2 71.9 96.8 72.6C94.8 73.2 93.8 75.1 93.3 76.2L89.1 86.2V86.3L106 137.4C107.1 140.1 109.7 141.9 112.6 141.9C117.8 142.2 120 137.4 120 137.4L121.2 134.6L113.5 112Z" fill="url(#paint1_linear_402_6)"/>
</g>
<defs>
<linearGradient id="paint0_linear_402_6" x1="50.8541" y1="102.647" x2="41.5658" y2="97.4978" gradientUnits="userSpaceOnUse">
<stop stop-color="#4D4A4A" stop-opacity="0"/>
<stop offset="1" stop-color="#221F1F"/>
</linearGradient>
<linearGradient id="paint1_linear_402_6" x1="90.2909" y1="99.32" x2="75.0359" y2="90.8578" gradientUnits="userSpaceOnUse">
<stop stop-color="#221F1F" stop-opacity="0"/>
<stop offset="0.02" stop-color="#221F1F" stop-opacity="0.04"/>
<stop offset="0.19" stop-color="#221F1F" stop-opacity="0.31"/>
<stop offset="0.36" stop-color="#221F1F" stop-opacity="0.53"/>
<stop offset="0.53" stop-color="#221F1F" stop-opacity="0.71"/>
<stop offset="0.69" stop-color="#221F1F" stop-opacity="0.83"/>
<stop offset="0.85" stop-color="#221F1F" stop-opacity="0.9"/>
<stop offset="1" stop-color="#221F1F" stop-opacity="0.93"/>
</linearGradient>
<clipPath id="clip0_402_6">
<rect width="177" height="177" fill="white"/>
</clipPath>
</defs>
</svg>
